HIERARCHY
ROOT Hips
{
	OFFSET 0.000000 0.000000 0.000000
	CHANNELS 6 Xposition Yposition Zposition Xrotation Yrotation Zrotation
	JOINT LeftUpLeg_virtual
	{
		OFFSET 0.000000 0.000000 0.000000
		CHANNELS 3 Xrotation Yrotation Zrotation
		JOINT LeftUpLeg
		{
			OFFSET 15.427100 -6.655098 0.678600
			CHANNELS 3 Xrotation Yrotation Zrotation
			JOINT LeftLeg
			{
				OFFSET 4.081073 -39.591068 13.024000
				CHANNELS 3 Xrotation Yrotation Zrotation
				JOINT LeftFoot
				{
					OFFSET -4.081074 -37.707932 -15.979700
					CHANNELS 3 Xrotation Yrotation Zrotation
					JOINT LeftToeBase
					{
						OFFSET 5.346399 -15.068900 20.645000
						CHANNELS 3 Xrotation Yrotation Zrotation
						JOINT LeftToe_End
						{
							OFFSET 2.754700 0.931300 11.300900
							CHANNELS 3 Xrotation Yrotation Zrotation
							End Site
							{
								OFFSET 0 0 0
							}
						}
					}
				}
			}
		}
	}
	JOINT RightUpLeg_virtual
	{
		OFFSET 0.000000 0.000000 0.000000
		CHANNELS 3 Xrotation Yrotation Zrotation
		JOINT RightUpLeg
		{
			OFFSET -15.569500 -6.655098 0.678600
			CHANNELS 3 Xrotation Yrotation Zrotation
			JOINT RightLeg
			{
				OFFSET -4.081825 -39.591045 13.023800
				CHANNELS 3 Xrotation Yrotation Zrotation
				JOINT RightFoot
				{
					OFFSET 4.081824 -37.707954 -15.979600
					CHANNELS 3 Xrotation Yrotation Zrotation
					JOINT RightToeBase
					{
						OFFSET -5.346400 -15.068900 20.645000
						CHANNELS 3 Xrotation Yrotation Zrotation
						JOINT RightToe_End
						{
							OFFSET -2.754700 0.931300 11.300900
							CHANNELS 3 Xrotation Yrotation Zrotation
							End Site
							{
								OFFSET 0 0 0
							}
						}
					}
				}
			}
		}
	}
	JOINT Spine_virtual
	{
		OFFSET 0.000000 0.000000 0.000000
		CHANNELS 3 Xrotation Yrotation Zrotation
		JOINT Spine
		{
			OFFSET -0.279200 12.230698 -2.892100
			CHANNELS 3 Xrotation Yrotation Zrotation
			JOINT Spine1
			{
				OFFSET -0.232667 10.192268 -1.242267
				CHANNELS 3 Xrotation Yrotation Zrotation
				JOINT Spine1_split
				{
					OFFSET -0.232667 10.192268 -1.242267
					CHANNELS 3 Xrotation Yrotation Zrotation
					JOINT Spine2
					{
						OFFSET -0.232667 10.192268 -1.242267
						CHANNELS 3 Xrotation Yrotation Zrotation
						JOINT Neck_virtual
						{
							OFFSET 0.000000 0.000000 0.000000
							CHANNELS 3 Xrotation Yrotation Zrotation
							JOINT Neck
							{
								OFFSET -0.418800 17.814194 8.416900
								CHANNELS 3 Xrotation Yrotation Zrotation
								JOINT Head
								{
									OFFSET 0.000000 7.031097 3.806800
									CHANNELS 3 Xrotation Yrotation Zrotation
									JOINT HeadTop_End
									{
										OFFSET 0.000000 24.646606 12.978600
										CHANNELS 3 Xrotation Yrotation Zrotation
										End Site
										{
											OFFSET 0 0 0
										}
									}
								}
							}
						}
						JOINT LeftShoulder_virtual
						{
							OFFSET 0.000000 0.000000 0.000000
							CHANNELS 3 Xrotation Yrotation Zrotation
							JOINT LeftShoulder
							{
								OFFSET 8.476499 7.247704 -3.868750
								CHANNELS 3 Xrotation Yrotation Zrotation
								JOINT LeftShoulder_split
								{
									OFFSET 8.476499 7.247704 -3.868750
									CHANNELS 3 Xrotation Yrotation Zrotation
									JOINT LeftArm
									{
										OFFSET 9.308998 -2.777710 0.208600
										CHANNELS 3 Xrotation Yrotation Zrotation
										JOINT LeftForeArm
										{
											OFFSET 29.972298 0.000000 0.000000
											CHANNELS 3 Xrotation Yrotation Zrotation
											JOINT LeftHand
											{
												OFFSET 26.026505 0.000000 0.000000
												CHANNELS 3 Xrotation Yrotation Zrotation
												End Site
												{
													OFFSET 0 0 0
												}
											}
										}
									}
								}
							}
						}
						JOINT RightShoulder_virtual
						{
							OFFSET 0.000000 0.000000 0.000000
							CHANNELS 3 Xrotation Yrotation Zrotation
							JOINT RightShoulder
							{
								OFFSET -7.570500 7.247704 -3.868750
								CHANNELS 3 Xrotation Yrotation Zrotation
								JOINT RightShoulder_split
								{
									OFFSET -7.570500 7.247704 -3.868750
									CHANNELS 3 Xrotation Yrotation Zrotation
									JOINT RightArm
									{
										OFFSET -9.308998 -2.777710 0.208500
										CHANNELS 3 Xrotation Yrotation Zrotation
										JOINT RightForeArm
										{
											OFFSET -29.972300 0.000000 0.000000
											CHANNELS 3 Xrotation Yrotation Zrotation
											JOINT RightHand
											{
												OFFSET -26.026505 0.000000 0.000000
												CHANNELS 3 Xrotation Yrotation Zrotation
												End Site
												{
													OFFSET 0 0 0
												}
											}
										}
									}
								}
							}
						}
					}
				}
			}
		}
	}
}
MOTION
Frames: 9
Frame Time: 0.03333333
11.713412 74.871719 73.341232 0.000000 0.000000 0.000000 162.779240 49.569596 -175.763594 -60.454551 -5.908304 22.927173 24.163602 -32.753783 0.815012 13.867455 -2.383488 -21.860413 2.314800 1.976206 -7.813833 0.000000 0.000000 0.000000 165.431212 42.794895 179.748094 -7.057691 -30.512408 -25.922156 31.223359 0.995682 7.125703 -19.863413 -9.135003 22.233779 5.989420 0.756201 0.415751 0.000000 0.000000 0.000000 164.108996 48.820051 -177.463956 16.723462 4.712483 -1.434950 10.832223 13.653453 -12.210237 0.523032 -5.546873 1.478096 0.000000 0.000000 0.000000 3.404099 13.054326 -10.365008 5.351028 4.304953 5.904763 -4.129334 8.743908 -7.780864 0.000000 0.000000 0.000000 2.523606 13.715193 -11.167211 0.823800 19.350233 -5.104964 -6.165473 -1.703100 -0.050869 21.984058 32.659110 -67.084294 -56.597208 -27.524740 -29.465839 0.000000 0.000000 0.000000 2.233204 12.921957 -11.096238 5.712603 14.501987 1.772889 -7.623490 -2.557963 0.288412 -56.155596 31.488121 69.789582 35.345993 30.739570 -0.093396 0.000000 0.000000 0.000000 
11.438971 75.431229 71.545715 0.000000 0.000000 0.000000 161.735423 54.700881 -174.742781 -57.965309 -7.200071 26.006823 29.776729 -32.103703 0.842579 9.036536 -1.000377 -20.700881 2.767120 1.782881 -8.030113 0.000000 0.000000 0.000000 164.650521 47.587776 -179.303053 -12.705312 -27.748747 -27.844183 32.779123 2.550938 6.582634 -15.527542 -7.070792 21.787573 3.972761 0.975941 0.536430 0.000000 0.000000 0.000000 162.816683 53.887546 -176.390305 16.507140 4.842473 -0.705244 10.426897 13.051972 -12.295796 0.315031 -5.627583 1.588360 0.000000 0.000000 0.000000 3.151544 12.403837 -10.408937 4.094167 4.739882 5.092885 -2.990610 8.098789 -7.421690 0.000000 0.000000 0.000000 2.183180 13.086492 -11.226079 1.288543 17.911783 -7.837867 -6.298492 -1.165281 0.829591 16.803828 30.053724 -60.220931 -51.449991 -29.494109 -29.168893 0.000000 0.000000 0.000000 1.884142 12.254219 -11.136318 5.585676 13.710450 2.202910 -9.210958 -1.878184 0.498248 -48.684707 28.498177 67.099949 35.348107 38.071474 -0.792516 0.000000 0.000000 0.000000 
11.006858 75.554176 69.679123 0.000000 0.000000 0.000000 160.508967 59.799201 -173.522418 -54.939439 -8.830427 28.829884 36.363285 -31.077870 1.191394 3.823189 0.492108 -20.212966 3.198641 1.725096 -7.871759 0.000000 0.000000 0.000000 163.608302 52.661271 -177.956003 -18.107824 -23.987771 -29.395194 34.271758 4.255603 5.711195 -11.089274 -4.961174 22.895843 1.188742 0.971713 0.983955 0.000000 0.000000 0.000000 161.483704 59.308370 -175.305165 16.299382 4.775336 -0.341804 9.850595 12.234547 -12.345949 0.210856 -5.413107 1.567332 0.000000 0.000000 0.000000 2.797328 11.652100 -10.453552 2.821408 5.076786 5.136689 -2.224319 7.418286 -6.504262 0.000000 0.000000 0.000000 1.631289 12.342017 -11.225573 1.504152 15.635370 -10.226717 -6.576473 -0.796386 1.496042 10.902650 26.865709 -51.619390 -45.325709 -31.565040 -28.255987 0.000000 0.000000 0.000000 1.220181 11.436284 -11.087602 5.326223 12.285245 2.628560 -10.810323 -1.077186 -0.030564 -41.064894 24.393785 62.890702 35.176420 48.626507 -1.356985 0.000000 0.000000 0.000000 
10.477933 75.359047 67.556015 0.000000 0.000000 0.000000 158.593154 64.609690 -171.412517 -51.497827 -10.320821 31.028501 42.450387 -29.211865 1.519427 -1.601270 2.232143 -19.815429 2.853607 1.836766 -7.233012 0.000000 0.000000 0.000000 161.958839 57.919772 -175.787691 -22.547720 -19.676059 -30.143312 35.755381 5.835390 4.523879 -8.059886 -3.295314 24.605719 -1.115482 0.778412 1.739483 0.000000 0.000000 0.000000 159.766621 64.838023 -173.670797 16.100586 4.400954 -0.331064 9.067272 11.167522 -12.342597 0.317704 -4.799203 1.676437 0.000000 0.000000 0.000000 2.332918 10.746544 -10.493444 1.700372 5.239954 5.738232 -2.386627 6.519320 -5.016302 0.000000 0.000000 0.000000 0.789250 11.447747 -11.155227 1.401942 12.801108 -11.700998 -6.740542 -0.458328 1.972837 4.280290 22.738285 -42.167214 -38.059156 -33.624697 -26.250726 0.000000 0.000000 0.000000 0.257889 10.451100 -10.968496 4.979932 10.344477 2.932401 -11.875306 0.231850 -1.037206 -34.501922 19.086545 57.855179 34.433354 61.658399 -1.403627 0.000000 0.000000 0.000000 
9.981990 75.282433 65.238785 0.000000 0.000000 0.000000 154.801743 69.256137 -167.134346 -48.026277 -11.276927 32.474305 47.013077 -26.554140 1.577009 -6.924811 3.850696 -19.068975 1.737677 2.062642 -6.371195 0.000000 0.000000 0.000000 159.076185 63.422446 -172.227400 -25.613845 -15.490258 -29.989117 37.191705 6.751499 3.179818 -7.614867 -2.774427 25.229935 -0.866214 0.517870 2.864986 0.000000 0.000000 0.000000 156.879200 70.137519 -170.534606 15.855910 3.701190 -0.570992 8.105436 9.875072 -12.248879 0.443969 -4.374556 1.671624 0.000000 0.000000 0.000000 1.697552 9.625974 -10.490044 0.903846 5.266498 6.498668 -3.599822 5.240019 -3.104473 0.000000 0.000000 0.000000 -0.261185 10.335783 -10.993580 1.043691 9.740229 -12.073894 -6.984904 -0.347168 2.010671 -2.158922 17.232359 -33.112952 -29.064958 -35.069579 -22.363084 0.000000 0.000000 0.000000 -0.901602 9.238227 -10.799720 4.548021 8.019282 3.053135 -12.164571 1.550200 -2.376808 -29.549628 13.207688 52.790730 31.763207 75.650765 0.318132 0.000000 0.000000 0.000000 
9.451894 75.654495 62.544270 0.000000 0.000000 0.000000 147.322167 73.742370 -158.964061 -44.961636 -11.473408 33.052255 49.976231 -23.225206 1.288527 -11.747184 4.978154 -17.815237 0.428659 2.308670 -5.608131 0.000000 0.000000 0.000000 154.143655 68.826402 -166.599474 -27.657898 -11.993141 -29.140203 38.083134 6.504055 1.894295 -9.539378 -3.690602 24.006272 2.452896 0.355184 4.289016 0.000000 0.000000 0.000000 151.006945 75.137204 -164.123667 15.446082 2.700014 -0.931626 7.011499 8.361089 -11.997549 0.603762 -3.735549 1.326834 0.000000 0.000000 0.000000 0.884930 8.286607 -10.400881 0.611988 5.279049 7.011915 -5.661621 3.596256 -1.052967 0.000000 0.000000 0.000000 -1.393024 8.975334 -10.729531 0.566302 6.577274 -11.437388 -6.867136 -0.502045 1.564353 -7.508978 10.119936 -25.823636 -18.617526 -34.860589 -16.616049 0.000000 0.000000 0.000000 -2.033150 7.787762 -10.567047 4.140330 5.584769 2.994252 -11.895774 1.811706 -3.672811 -25.914433 7.759317 48.225295 -17.556902 88.526075 48.583060 0.000000 0.000000 0.000000 
8.807643 76.525581 59.235420 0.000000 0.000000 0.000000 132.726476 77.805717 -143.553856 -42.572118 -10.824681 32.625310 51.816455 -19.303614 0.762152 -16.085355 5.632834 -15.585406 -0.265156 2.480083 -5.315659 0.000000 0.000000 0.000000 145.414263 74.042884 -157.206489 -28.708788 -9.496091 -27.736244 37.905836 5.233682 0.907231 -12.342324 -5.313821 21.634295 6.360542 0.305479 5.730331 0.000000 0.000000 0.000000 138.025146 79.507363 -150.362421 14.943812 1.563117 -1.273104 5.943337 6.753038 -11.554551 0.716364 -3.079896 0.855506 0.000000 0.000000 0.000000 -0.010352 6.806870 -10.137950 0.936366 5.391269 6.983257 -8.096281 1.858901 0.789694 0.000000 0.000000 0.000000 -2.402276 7.395667 -10.326446 0.106399 3.666525 -10.215607 -6.167698 -0.757065 0.978086 -11.747268 1.568888 -21.162639 -8.050954 -32.850649 -10.160466 0.000000 0.000000 0.000000 -2.993306 6.224337 -10.195007 3.792032 3.477140 2.898091 -10.808114 0.845705 -4.543295 -23.209818 3.475959 44.605985 -138.537560 79.641454 168.376198 0.000000 0.000000 0.000000 
8.045624 77.986458 55.371979 0.000000 0.000000 0.000000 105.457895 80.502864 -115.414337 -40.721298 -9.140011 31.256984 52.975500 -14.863144 0.143526 -19.658931 5.940833 -12.980134 -0.089581 2.606738 -5.518977 0.000000 0.000000 0.000000 128.383159 78.642163 -139.530465 -28.709570 -8.215323 -25.994225 36.470010 3.356915 0.180592 -14.215797 -6.793056 19.574972 8.198875 0.184239 6.938802 0.000000 0.000000 0.000000 108.473561 82.567261 -119.941715 14.346150 0.484162 -1.491575 5.053987 5.186601 -10.903118 0.971804 -2.618870 0.376196 0.000000 0.000000 0.000000 -0.902047 5.328299 -9.647364 1.859856 5.618489 6.398513 -10.308428 0.376879 2.230533 0.000000 0.000000 0.000000 -3.167398 5.745687 -9.747015 -0.304972 1.225673 -8.659630 -5.312778 -0.705597 0.120664 -15.313025 -7.535761 -19.314163 0.878799 -29.997091 -4.391370 0.000000 0.000000 0.000000 -3.685697 4.679140 -9.639511 3.552273 2.095916 2.839559 -9.621782 -1.056114 -4.854887 -21.205835 0.841174 41.962124 -142.470984 71.617464 171.001094 0.000000 0.000000 0.000000 
7.122184 79.833633 51.017536 0.000000 0.000000 0.000000 68.456541 80.182295 -77.562515 -38.930016 -6.239650 29.157354 53.497323 -9.739538 -0.681837 -22.286188 6.302671 -10.518421 0.165015 2.725235 -5.833015 0.000000 0.000000 0.000000 93.614511 81.349670 -104.076189 -27.498249 -8.280399 -24.017660 33.471516 1.264331 -0.381990 -14.161786 -7.600821 18.971325 7.338099 -0.133674 7.793812 0.000000 0.000000 0.000000 63.298566 82.054826 -73.901206 13.755903 -0.354684 -1.566019 4.448461 3.832627 -10.072448 1.208834 -2.012832 -0.004100 0.000000 0.000000 0.000000 -1.648272 4.014326 -8.922153 3.234212 5.897390 5.417649 -11.893618 -0.513474 3.155241 0.000000 0.000000 0.000000 -3.628835 4.243550 -8.983376 -0.634674 -0.613390 -7.072752 -4.436313 -0.359676 -0.390161 -18.863941 -15.632665 -19.998444 7.084428 -27.537958 -0.084047 0.000000 0.000000 0.000000 -4.087395 3.358731 -8.880307 3.431086 1.631765 2.818160 -8.747306 -3.028257 -4.473803 -20.047585 0.186657 40.235251 -144.411564 67.028444 171.510954 0.000000 0.000000 0.000000 
